<svg width="12" height="9" viewBox="0 0 12 9" fill="none" xmlns="http://www.w3.org/2000/svg">
<path d="M10.8685 0.614656C11.3991 1.14524 11.3991 2.00549 10.8685 2.53608L5.71837 8.05115C5.18779 8.58173 4.32754 8.58173 3.79695 8.05114C3.26636 7.52056 3.26636 6.66031 3.79695 6.12972L8.94712 0.614656C9.47771 0.0840694 10.338 0.0840697 10.8685 0.614656Z" fill="#373563"/>
<path d="M0.960563 3.29334C0.429976 3.82393 0.429977 4.68418 0.960564 5.21477L3.79695 8.05114C4.32754 8.58173 5.18779 8.58173 5.71837 8.05115C6.24896 7.52056 6.24896 6.66032 5.71837 6.12973L2.88199 3.29334C2.3514 2.76276 1.49115 2.76276 0.960563 3.29334Z" fill="#373563"/>
</svg>
